<svg xmlns="http://www.w3.org/2000/svg" viewBox="0 0 512 512">
  <defs>
    <linearGradient id="g" x1="0" y1="0" x2="0" y2="1">
      <stop offset="0" stop-color="#a78bfa"/>
      <stop offset="1" stop-color="#5b21b6"/>
    </linearGradient>
  </defs>
  <rect width="512" height="512" rx="120" fill="url(#g)"/>
  <svg x="96" y="96" width="320" height="320" viewBox="0 0 24 24"
       fill="none" stroke="#fff" stroke-width="1.8"
       stroke-linecap="round" stroke-linejoin="round">
    <path d="M14 13h2a2 2 0 0 1 2 2v2a2 2 0 0 0 4 0v-6.998a2 2 0 0 0-.59-1.42L18 5"/>
    <path d="M14 21V5a2 2 0 0 0-2-2H5a2 2 0 0 0-2 2v16"/>
    <path d="M2 21h13"/>
    <path d="M3 9h11"/>
  </svg>
</svg>
